inDegrees=no
nColumns=24
nRows=28
DataType=double
version=3
OpenSimVersion=4.5
endheader
time	pelvis_tilt	pelvis_list	pelvis_rotation	pelvis_tz	pelvis_ty	pelvis_tx	hip_flexion_r	hip_adduction_r	hip_rotation_r	knee_angle_r	ankle_angle_r	subtalar_angle_r	mtp_angle_r	hip_flexion_l	hip_adduction_l	hip_rotation_l	knee_angle_l	ankle_angle_l	subtalar_angle_l	mtp_angle_l	lumbar_extension	lumbar_bending	lumbar_rotation
0.5699999999999998	-0.0168398714341581	-0.05317681023619361	-0.05772962371094738	0.04151339000000001	0.94386714	0.6348570499999999	-0.2324611357623447	0.05853095199157346	-0.09963044378681683	-0.2494277147715026	0.2773437739226796	0.04182745902693931	0	0.4440850164921892	-0.07972772634949449	-0.2243226415492844	-0.1052025259316649	0.01784717685473705	0.172017217738518	0	-0.1550256967526187	0.02534316231212899	0.1013456725669325
0.5799999999999998	-0.02165015072026287	-0.05126807199702492	-0.06207314519174537	0.04077594000000001	0.9425340800000001	0.64789117	-0.2319405722888486	0.05158212742921468	-0.09323184387046014	-0.2672309276550465	0.2628180829019305	0.05166272621047301	0	0.4564979578299994	-0.07852659878678656	-0.2212058250661572	-0.1427992845115556	0.0008614250546801717	0.0994961492529892	0	-0.1456827267372134	0.02051766622237125	0.105522046848486
0.5899999999999999	-0.02663833767699996	-0.04582356228959737	-0.06257368678973584	0.03948683	0.9415413300000001	0.6607576599999999	-0.2278697631999044	0.04139624960436119	-0.09107190903666069	-0.2907027687126053	0.2513171300289612	0.05666268331786498	0	0.4651217504408877	-0.07097373845959279	-0.2162090830297803	-0.1646435931261932	-0.04960532580503678	0.0587304658143567	0	-0.1375338560181512	0.01236728055751833	0.101725639297205
0.5999999999999999	-0.02537048351728469	-0.03728091698866801	-0.06381455522928443	0.03813003000000001	0.9416403600000001	0.6737767699999999	-0.2298553452264832	0.02706258843456276	-0.08920968949960668	-0.3134534318692584	0.2330816140995298	0.06188016290432812	0	0.4653121969291409	-0.06197336034479196	-0.2114112746687433	-0.1870797271822188	-0.05822965475560414	0.05186599667993822	0	-0.136830809121114	-0.0001502944906794365	0.1001740752770366
0.6099999999999999	-0.03262324806985808	-0.01476010620863581	-0.06821451568924941	0.03647343	0.94099772	0.68643099	-0.2088188228116901	-0.005539302418034701	-0.09351105483741012	-0.3618346889803002	0.2320166311196566	0.08896936586465455	0	0.4647907737064552	-0.03818158472737937	-0.2061370828771646	-0.1900166459470918	-0.08151671030033848	0.04957570931295968	0	-0.1247237414471047	-0.02834564227595809	0.09913579845271278
0.6199999999999999	-0.0356610910207525	-0.001210784216056638	-0.06803542848008652	0.03489453000000001	0.94135274	0.6993937899999999	-0.2007169925556935	-0.02458443539769588	-0.09107963927445069	-0.3917531736325354	0.2032431140471892	0.09651420657846832	0	0.4645879622585833	-0.02403763770568008	-0.205096140935073	-0.2070155669544867	-0.09896659768291113	0.05717515998280494	0	-0.1180690425628188	-0.04674506067918085	0.09718273382996079
0.6299999999999999	-0.03574782539119582	0.01295703833962749	-0.06902475571951457	0.03345859000000001	0.9420517900000001	0.71243603	-0.1899423708427793	-0.04537786242015177	-0.08829011199411224	-0.4320371313623187	0.1752208912300024	0.1080576360530422	0	0.463533852854483	-0.009953372741351512	-0.2051300476209844	-0.2307955659627715	-0.09990755983506563	0.06118610096228019	0	-0.1151423755129062	-0.0659918624396527	0.09471532905422647
0.6399999999999999	-0.03197126341200965	0.0197678772441594	-0.06883181365356141	0.03215621000000002	0.94348687	0.7254642699999999	-0.1827463083491037	-0.05641088135055418	-0.07980662046767238	-0.4716083797032601	0.1383988874466648	0.114674682425776	0	0.4586355433736612	-0.002017379482089217	-0.2015521451691434	-0.2545033582564402	-0.09116788486676076	0.05421643594692212	0	-0.1181864241580629	-0.07571229603411726	0.09081263706015134
0.6499999999999999	-0.03997731018291963	0.03307786324753977	-0.07128561400876986	0.03055650000000001	0.9431967600000001	0.7383406699999999	-0.1532978954932362	-0.07703976344352101	-0.07414227550617489	-0.5268272027454985	0.1065473792638795	0.1378074543552926	0	0.4695785029655949	0.0132527723063201	-0.1911840108135516	-0.2845694040392132	-0.07572146337601336	0.008958949932477945	0	-0.1039746560850921	-0.09207260211540497	0.09421847797301376
0.6599999999999999	-0.0338695968340982	0.03765831806237913	-0.07035169814780758	0.02877004999999999	0.94485301	0.75123602	-0.1414432996439047	-0.08680445666795399	-0.06844508414628654	-0.5729180564251665	0.05207436054375954	0.1434573682364029	0	0.4618070898914726	0.02181490505272924	-0.1844094921090566	-0.3102944611468394	-0.05969558978107704	-0.003048110724457875	0	-0.1091319169254395	-0.0988534858611491	0.0899732197346742
0.6699999999999999	-0.0355288524882364	0.0450292566217582	-0.06806126654901508	0.02675808000000002	0.94580394	0.76400141	-0.1174415678987942	-0.09820222724634171	-0.0602486961402071	-0.6220396727801265	-0.01369934882936327	0.1512240837568435	0	0.4601060558741633	0.03508982087486816	-0.1705168080969951	-0.3313014932568604	-0.0430079791381031	-0.01524080460063581	0	-0.1046280464450479	-0.1087249508243033	0.08791123068410156
0.6799999999999999	-0.03485352617140988	0.05124359510129727	-0.06794858549750218	0.02485588999999999	0.94700109	0.77615501	-0.09001558446067372	-0.1095329733417285	-0.05225072589014063	-0.6764618388890286	-0.08199559286783605	0.1553650001038465	0	0.452445759710468	0.04605028716639687	-0.1649276622171161	-0.3444475522929892	-0.02682928503746093	-0.02822412302865629	0	-0.1044618146548368	-0.1152119352611786	0.08308693834792892
0.6899999999999999	-0.04634097988061413	0.06521101497031138	-0.07035629968988609	0.02310186	0.9467977900000001	0.7873879499999999	-0.04117955196789452	-0.1288415679607685	-0.03923284226348196	-0.7409997382146796	-0.1225854287992765	0.1500668955561862	0	0.4532571461754935	0.06370828691084564	-0.1620056654937488	-0.3444798738708739	-0.02469064967825403	-0.05492635385615856	0	-0.09017068541358021	-0.1309363294077716	0.08511135360129878
0.7	-0.04571969427391758	0.0763639748392881	-0.07042737144255708	0.02123231	0.94800344	0.79871286	-0.01023185450974	-0.1439488379439329	-0.02887302649617104	-0.7965151394716556	-0.1310608066390897	0.1286351981356176	0	0.4385239672716746	0.07925161571391492	-0.1634982700228568	-0.3417884972754165	-0.01284492760643842	-0.06487298962659738	0	-0.09136580345860769	-0.1432117662021939	0.07925993517486041
0.71	-0.0461545813268526	0.08252426209954467	-0.07149388321766791	0.01985466	0.94949489	0.80994523	0.02091548854355628	-0.1538382073672187	-0.02271837282016193	-0.8477626974061727	-0.11336819439758	0.1130373618273438	0	0.4210559542957542	0.08781543183038762	-0.1723998351003255	-0.332770560101143	-0.0005203709636796605	-0.06414223196249334	0	-0.09123673915294951	-0.1496262721766887	0.07229987488090897
0.72	-0.04593019220815312	0.09019305346156066	-0.07326683931824597	0.01845326	0.95097493	0.8209191299999999	0.05369669749056338	-0.1660498939163169	-0.01878637796967629	-0.8977038339840712	-0.09476797115152635	0.08610106140319808	0	0.4043604847842244	0.09770234138662563	-0.1800976167475635	-0.3265498240708631	0.01300522737158784	-0.05964858108300382	0	-0.0922090838958512	-0.1578324607301169	0.06774399690493348
0.73	-0.04552965799957323	0.09801758784732514	-0.07627586458697752	0.01709956000000001	0.9525805500000001	0.8318260399999999	0.0879748067455664	-0.178995259461621	-0.01642623240312328	-0.9446212467995512	-0.08161552822459252	0.05672457094781144	0	0.3853312857879693	0.1075062443053693	-0.1902414148586843	-0.3156543267880753	0.0245666340865231	-0.05178801344909693	0	-0.09296087958422584	-0.1657022920480946	0.0633159576644154
0.74	-0.04585115017032545	0.1050530951107571	-0.07791322163940978	0.01565812999999999	0.9542719700000001	0.84259248	0.1229647391112173	-0.1903278266335494	-0.01542215286203135	-0.9876629451752039	-0.06606718264712129	0.02240903118713723	0	0.3654246701577626	0.1173711161127411	-0.1978646274881638	-0.3011900678663379	0.03177558147340157	-0.0423598343652142	0	-0.09284122609389442	-0.1722239837534091	0.05818118504241408
0.75	-0.04614003601039097	0.1085583254148205	-0.07901227947836439	0.01447374000000001	0.95615827	0.8531954399999999	0.1580369325097062	-0.2003363854641184	-0.02153813841939669	-1.025965582972442	-0.05410087874434512	-0.007558989225395055	0	0.3456219223874678	0.1234635561312995	-0.2034048870447603	-0.287217683917583	0.04062297851220537	-0.03161333898226176	0	-0.0935128258230021	-0.175360060293898	0.05261543599928975
0.76	-0.04663687174568486	0.1106548596064093	-0.07718941126680041	0.01290314000000001	0.95796415	0.8636435	0.1918259928288517	-0.2056010001104926	-0.02450788333684124	-1.059530599738832	-0.04266628974725487	-0.03933683334363891	0	0.326527730471461	0.1290514799316363	-0.2057280333765003	-0.274594802334571	0.0486499022037661	-0.02295355523873646	0	-0.094334221227689	-0.1759835179081162	0.04425971531499942
0.77	-0.04702166624566095	0.1115702426429295	-0.07369939398301316	0.01126589	0.9598380400000001	0.87424662	0.2239423437300528	-0.2096891869192002	-0.02952554157350695	-1.088232148857725	-0.03348982658595081	-0.0663106110482798	0	0.3070947930114554	0.1338610237120308	-0.2056065827206381	-0.2623988967035035	0.05973953629897763	-0.01312901380158799	0	-0.09479935374227354	-0.1752334541099583	0.03471103241637369
0.78	-0.04895596029018771	0.1097890342079659	-0.0683840378008324	0.009595090000000001	0.96159341	0.88478105	0.2554614441829519	-0.2106056305114898	-0.03729865582005123	-1.110229671200749	-0.02858071404065805	-0.09284505272827942	0	0.2895438974909503	0.1358744358861973	-0.2033797464495499	-0.2513542523094865	0.06349117022082557	-0.002037793027553468	0	-0.09392581680071621	-0.1716995091715922	0.02473985312786163
0.79	-0.04693514214015553	0.1052270545963843	-0.06497157363702015	0.008023470000000005	0.96365776	0.89508309	0.2826566696121517	-0.2089310326472947	-0.04465472276916684	-1.127879137681419	-0.02730997716232697	-0.09762094272097112	0	0.2703431322801583	0.1343890189720149	-0.2049566331027697	-0.2447186141659616	0.06840396157111567	-0.0001454293853895023	0	-0.09912899341395927	-0.1653330699137632	0.02037168950172833
0.8	-0.04955077452320189	0.1039265311223286	-0.05519280870543316	0.005847350000000001	0.96515116	0.9057959	0.3111960464021409	-0.2103806181264666	-0.0550305402386588	-1.139694574276455	-0.02656773017028998	-0.1249650874959327	0	0.2499741061508686	0.1389555891840539	-0.1934323608856645	-0.2272177214558616	0.07729568718039333	0.0162183376838049	0	-0.09552393695508279	-0.1614304957294126	0.005439508854728796
0.8100000000000001	-0.05085393383413957	0.09912230323595046	-0.04960405544800408	0.004518330000000015	0.96677451	0.9164399999999999	0.3377693801265274	-0.2060982878730842	-0.06255668306566303	-1.146339410130605	-0.02524333733289655	-0.1303735862131767	0	0.2304878420754304	0.1373484845982968	-0.1923676130016415	-0.2139603936656609	0.08449379886514373	0.02186266878023687	0	-0.09395789141451183	-0.1550842134536478	-0.003344696793177298
0.8199999999999998	-0.05155764537336816	0.09332390943569047	-0.03808932490442952	0.00235202000000001	0.9683115800000001	0.9267666299999999	0.3603377528930546	-0.2028667899935986	-0.07632381105839579	-1.147383065012486	-0.01871804030094616	-0.1416948916481065	0	0.2106276919968337	0.1361588515995096	-0.1839728405753378	-0.200651509198422	0.08989181949822335	0.03930404855537068	0	-0.09554764009712119	-0.1470831742166246	-0.01456507594611667
0.8299999999999998	-0.05288585056788925	0.0886394160128253	-0.03191438462260801	0.0007976100000000041	0.9695938700000001	0.9371016299999999	0.3852505611684719	-0.1988323783499413	-0.08404428495296945	-1.144933381611845	-0.01348016724030516	-0.1437825960308122	0	0.1908021819915002	0.1345970273122675	-0.1845519375050239	-0.1852566826074233	0.09751733491511791	0.04678237965831283	0	-0.09509931457963461	-0.1407288454494094	-0.02236843238527489
0.8399999999999999	-0.05348509546009279	0.08362771029454261	-0.02490091231641486	-0.0007172000000000012	0.97078648	0.94748349	0.4074916946486271	-0.1935731665447996	-0.09136470843903499	-1.138014844620661	-0.005791314348454517	-0.1430992924728064	0	0.1707142432326392	0.1327113042988415	-0.18085522036809	-0.1711142472153892	0.1034983590483484	0.0571718614850516	0	-0.09520977786425673	-0.1340817958196362	-0.02902603497383733
